<svg xmlns="http://www.w3.org/2000/svg" xmlns:xlink="http://www.w3.org/1999/xlink" width="500" zoomAndPan="magnify" viewBox="0 0 375 374.999991" height="500" preserveAspectRatio="xMidYMid meet" version="1.0"><rect x="-37.5" width="450" fill="#ffffff" y="-37.499999" height="449.999989" fill-opacity="1"/><rect x="-37.5" width="450" fill="#fffefc" y="-37.499999" height="449.999989" fill-opacity="1"/><path fill="#cdc3af" d="M 305.347656 41.707031 L 69.652344 41.707031 C 101.851562 15.648438 142.855469 0.046875 187.5 0.046875 C 232.144531 0.046875 273.148438 15.648438 305.347656 41.707031 Z M 305.347656 41.707031 " fill-opacity="1" fill-rule="nonzero"/><path fill="#cdc3af" d="M 305.445312 333.308594 C 274.535156 358.351562 235.5 373.761719 192.90625 374.96875 L 182.09375 374.96875 C 139.5 373.761719 100.464844 358.351562 69.554688 333.308594 Z M 305.445312 333.308594 " fill-opacity="1" fill-rule="nonzero"/><path fill="#cdc3af" d="M 271.066406 249.992188 C 273.46875 258.632812 273.113281 268.089844 269.761719 276.359375 C 267.394531 282.195312 263.5 287.4375 258.652344 291.648438 L 343.460938 291.648438 C 352.0625 278.800781 359.109375 264.824219 364.347656 249.992188 Z M 271.066406 249.992188 " fill-opacity="1" fill-rule="nonzero"/><path fill="#cdc3af" d="M 104.296875 276.359375 C 100.945312 268.089844 100.589844 258.632812 102.992188 249.992188 L 10.652344 249.992188 C 15.890625 264.824219 22.9375 278.800781 31.539062 291.648438 L 115.40625 291.648438 C 110.558594 287.4375 106.664062 282.195312 104.296875 276.359375 Z M 104.296875 276.359375 " fill-opacity="1" fill-rule="nonzero"/><path fill="#503c15" d="M 127.832031 189.019531 C 127.832031 189.039062 127.832031 189.058594 127.828125 189.078125 C 126.304688 206.921875 102.082031 218.941406 86.578125 209.945312 C 79.683594 205.945312 76.195312 197.929688 74.339844 190.175781 C 72.46875 182.332031 71.8125 174.203125 72.398438 166.160156 C 72.910156 159.191406 74.453125 152.0625 78.542969 146.398438 C 82.265625 141.238281 88.554688 137.269531 95.09375 137.910156 C 98.992188 138.292969 102.601562 140.261719 105.574219 142.8125 C 117.976562 153.449219 129.234375 172.257812 127.832031 189.019531 Z M 127.832031 189.019531 " fill-opacity="1" fill-rule="nonzero"/><path fill="#cdc3af" d="M 69.488281 191.335938 C 67.558594 183.253906 66.847656 174.960938 67.367188 166.675781 L 1.152344 166.675781 C 0.386719 173.527344 0 180.492188 0 187.546875 C 0 194.570312 0.386719 201.507812 1.140625 208.335938 L 77.226562 208.335938 C 73.769531 204.082031 71.175781 198.398438 69.488281 191.335938 Z M 69.488281 191.335938 " fill-opacity="1" fill-rule="nonzero"/><path fill="#cdc3af" d="M 373.847656 166.675781 L 307.59375 166.675781 C 307.710938 168.175781 307.78125 169.730469 307.796875 171.34375 C 307.871094 179.949219 306.628906 188.480469 304.097656 196.699219 C 302.71875 201.183594 300.992188 205.058594 298.941406 208.335938 L 373.859375 208.335938 C 374.613281 201.507812 375 194.570312 375 187.546875 C 375 180.492188 374.613281 173.527344 373.847656 166.675781 Z M 373.847656 166.675781 " fill-opacity="1" fill-rule="nonzero"/><path fill="#503c15" d="M 246.019531 190.644531 C 246.019531 190.664062 246.019531 190.683594 246.019531 190.703125 C 246.398438 208.609375 269.800781 222.15625 285.847656 214.175781 C 292.984375 210.625 296.980469 202.851562 299.328125 195.230469 C 301.699219 187.527344 302.875 179.453125 302.804688 171.390625 C 302.742188 164.402344 301.660156 157.191406 297.945312 151.273438 C 294.558594 145.886719 288.535156 141.523438 281.972656 141.742188 C 278.054688 141.871094 274.328125 143.605469 271.195312 145.960938 C 258.140625 155.78125 245.695312 173.832031 246.019531 190.644531 Z M 246.019531 190.644531 " fill-opacity="1" fill-rule="nonzero"/><path fill="#503c15" d="M 123.554688 130.128906 C 123.117188 128.65625 122.769531 127.160156 122.507812 125.660156 C 120.214844 112.4375 121.910156 96.703125 128.542969 84.730469 C 134.058594 74.769531 144.300781 64.441406 156.394531 68.695312 C 175.429688 75.390625 183.519531 107.773438 178.726562 125.59375 C 175.964844 135.871094 166.503906 145.167969 156.675781 148.628906 C 150.347656 150.859375 143.1875 150.800781 137.257812 147.882812 C 130.367188 144.492188 125.796875 137.644531 123.554688 130.128906 Z M 123.554688 130.128906 " fill-opacity="1" fill-rule="nonzero"/><path fill="#cdc3af" d="M 261 125.019531 L 364.320312 125.019531 C 359.074219 110.183594 352.015625 96.207031 343.40625 83.359375 L 254.609375 83.359375 C 260.839844 95.039062 263.175781 110.425781 261 125.019531 Z M 261 125.019531 " fill-opacity="1" fill-rule="nonzero"/><path fill="#cdc3af" d="M 123.613281 83.359375 L 31.59375 83.359375 C 22.984375 96.207031 15.925781 110.183594 10.679688 125.019531 L 117.347656 125.019531 C 115.148438 110.480469 117.457031 95.109375 123.613281 83.359375 Z M 123.613281 83.359375 " fill-opacity="1" fill-rule="nonzero"/><path fill="#cdc3af" d="M 194.183594 125.019531 C 192.25 115.328125 193.410156 102.746094 197.34375 91.578125 C 198.378906 88.640625 199.566406 85.898438 200.882812 83.359375 L 177.894531 83.359375 C 179.132812 85.839844 180.25 88.511719 181.222656 91.363281 C 185.066406 102.640625 186.085938 115.324219 184 125.019531 Z M 194.183594 125.019531 " fill-opacity="1" fill-rule="nonzero"/><path fill="#503c15" d="M 254.605469 130.9375 C 255.058594 129.472656 255.425781 127.980469 255.699219 126.480469 C 258.128906 113.285156 256.597656 97.53125 250.089844 85.492188 C 244.675781 75.472656 234.542969 65.039062 222.40625 69.167969 C 203.300781 75.667969 194.875 107.964844 199.484375 125.832031 C 202.140625 136.136719 211.503906 145.53125 221.296875 149.09375 C 227.601562 151.390625 234.761719 151.40625 240.722656 148.550781 C 247.648438 145.230469 252.285156 138.429688 254.605469 130.9375 Z M 254.605469 130.9375 " fill-opacity="1" fill-rule="nonzero"/><path fill="#503c15" d="M 187.027344 290.777344 C 195.96875 290.777344 204.898438 292.015625 213.585938 294.492188 C 220.84375 296.5625 228.203125 297.878906 235.878906 296.863281 C 248.550781 295.195312 260.328125 286.34375 265.136719 274.484375 C 269.574219 263.53125 268.078125 250.371094 261.289062 240.695312 C 250.636719 225.515625 231.628906 219.492188 222.75 202.441406 C 214.625 186.835938 208.554688 165.285156 187.027344 165.285156 C 165.503906 165.285156 159.433594 186.835938 151.308594 202.441406 C 142.425781 219.492188 123.417969 225.515625 112.769531 240.695312 C 105.980469 250.371094 104.480469 263.53125 108.921875 274.484375 C 113.730469 286.34375 125.507812 295.195312 138.179688 296.863281 C 145.855469 297.878906 153.214844 296.5625 160.472656 294.492188 C 169.160156 292.015625 178.089844 290.777344 187.027344 290.777344 Z M 187.027344 290.777344 " fill-opacity="1" fill-rule="nonzero"/><path fill="#cdc3af" d="M 146.878906 200.136719 C 148.128906 197.734375 149.328125 195.195312 150.59375 192.507812 C 154.824219 183.523438 159.707031 173.167969 167.976562 166.675781 L 128.75 166.675781 C 131.777344 174.011719 133.445312 181.824219 132.808594 189.433594 L 132.796875 189.539062 C 132.203125 196.519531 128.746094 203.113281 123.003906 208.335938 L 141.050781 208.335938 C 143.300781 205.875 145.285156 203.195312 146.878906 200.136719 Z M 146.878906 200.136719 " fill-opacity="1" fill-rule="nonzero"/><path fill="#cdc3af" d="M 206.078125 166.675781 C 214.351562 173.167969 219.230469 183.523438 223.464844 192.507812 C 224.730469 195.195312 225.925781 197.734375 227.175781 200.136719 C 228.769531 203.195312 230.757812 205.875 233.007812 208.335938 L 247.886719 208.335938 C 243.566406 203.152344 241.164062 197.097656 241.03125 190.808594 L 241.03125 190.769531 C 240.871094 182.539062 243.390625 174.25 247.363281 166.675781 Z M 206.078125 166.675781 " fill-opacity="1" fill-rule="nonzero"/></svg>